<svg xmlns="http://www.w3.org/2000/svg" width="1200" height="500" viewBox="0 0 1200 500" font-family="Segoe UI, Arial, sans-serif">
  <defs>
    <linearGradient id="bg" x1="0" y1="0" x2="1" y2="1">
      <stop offset="0" stop-color="#10202b"/><stop offset="1" stop-color="#0f1720"/>
    </linearGradient>
    <linearGradient id="logo" x1="0" y1="0" x2="1" y2="1">
      <stop offset="0" stop-color="#19c39c"/><stop offset="1" stop-color="#3b9ae1"/>
    </linearGradient>
  </defs>
  <rect width="1200" height="500" fill="url(#bg)"/>
  <rect x="60" y="70" width="92" height="92" rx="22" fill="url(#logo)"/>
  <text x="106" y="128" font-size="46" font-weight="800" fill="#04201a" text-anchor="middle">V</text>
  <text x="106" y="150" font-size="15" font-weight="700" fill="#04201a" text-anchor="middle">வேதி</text>
  <text x="178" y="118" font-size="58" font-weight="800" fill="#e8eef5">VedhiPro</text>
  <text x="180" y="150" font-size="22" fill="#93a4b8">Chemical Engineering Toolkit · 24 calculators · offline</text>

  <g font-size="19" font-weight="600">
    <g transform="translate(60,210)">
      <rect width="250" height="54" rx="12" fill="#172230" stroke="#2a3a4d"/>
      <text x="20" y="33" fill="#19c39c">♨ Steam Tables (IAPWS-IF97)</text>
    </g>
    <g transform="translate(330,210)">
      <rect width="250" height="54" rx="12" fill="#172230" stroke="#2a3a4d"/>
      <text x="20" y="33" fill="#3b9ae1">🛢 Pipe ΔP &amp; Pump Power</text>
    </g>
    <g transform="translate(600,210)">
      <rect width="270" height="54" rx="12" fill="#172230" stroke="#2a3a4d"/>
      <text x="20" y="33" fill="#19c39c">🔥 Heat Exchanger &amp; Pinch</text>
    </g>
    <g transform="translate(890,210)">
      <rect width="250" height="54" rx="12" fill="#172230" stroke="#2a3a4d"/>
      <text x="20" y="33" fill="#f2b441">⚗ Reaction Engineering</text>
    </g>

    <g transform="translate(60,284)">
      <rect width="380" height="54" rx="12" fill="#172230" stroke="#19c39c"/>
      <text x="20" y="33" fill="#e8eef5">🏛 Interactive McCabe-Thiele Designer</text>
    </g>
    <g transform="translate(460,284)">
      <rect width="360" height="54" rx="12" fill="#172230" stroke="#19c39c"/>
      <text x="20" y="33" fill="#e8eef5">🏭 Regenerative Rankine Analyzer</text>
    </g>
    <g transform="translate(840,284)">
      <rect width="300" height="54" rx="12" fill="#172230" stroke="#2a3a4d"/>
      <text x="20" y="33" fill="#3b9ae1">💵 Economics (NPV / IRR)</text>
    </g>
  </g>

  <g transform="translate(60,380)" font-size="17">
    <rect width="160" height="44" rx="22" fill="#19c39c"/>
    <text x="80" y="29" fill="#04201a" font-weight="700" text-anchor="middle">HTML · CSS · JS</text>
    <rect x="180" width="150" height="44" rx="22" fill="#1e2d3d" stroke="#2a3a4d"/>
    <text x="255" y="29" fill="#e8eef5" text-anchor="middle">HTML5 Canvas</text>
    <rect x="350" width="170" height="44" rx="22" fill="#1e2d3d" stroke="#2a3a4d"/>
    <text x="435" y="29" fill="#e8eef5" text-anchor="middle">AI Assistant 🤖</text>
    <rect x="540" width="200" height="44" rx="22" fill="#1e2d3d" stroke="#2a3a4d"/>
    <text x="640" y="29" fill="#e8eef5" text-anchor="middle">Verified vs textbooks ✓</text>
  </g>
</svg>
